<svg width="32" height="32" viewBox="0 0 32 32" fill="none" xmlns="http://www.w3.org/2000/svg">
<path d="M7 25L4 28C21.2 30.4 27.1667 22.6667 28 18.5C28.5 13.5 27 3.60001 17 4.00001C7 4.40001 4.5 11.8333 4.5 15.5L5.5 21L7 25Z" fill="#E4CEFF" fill-opacity="0.9"/>
<path d="M10.6665 14.6665C10.4028 14.6665 10.145 14.7447 9.92573 14.8912C9.70646 15.0377 9.53556 15.246 9.43465 15.4896C9.33373 15.7332 9.30733 16.0013 9.35877 16.26C9.41022 16.5186 9.53721 16.7562 9.72368 16.9426C9.91015 17.1291 10.1477 17.2561 10.4064 17.3076C10.665 17.359 10.9331 17.3326 11.1767 17.2317C11.4204 17.1308 11.6286 16.9599 11.7751 16.7406C11.9216 16.5213 11.9998 16.2635 11.9998 15.9998C11.9998 15.6462 11.8593 15.3071 11.6093 15.057C11.3592 14.807 11.0201 14.6665 10.6665 14.6665V14.6665ZM15.9998 14.6665C15.7361 14.6665 15.4783 14.7447 15.2591 14.8912C15.0398 15.0377 14.8689 15.246 14.768 15.4896C14.6671 15.7332 14.6407 16.0013 14.6921 16.26C14.7436 16.5186 14.8705 16.7562 15.057 16.9426C15.2435 17.1291 15.4811 17.2561 15.7397 17.3076C15.9983 17.359 16.2664 17.3326 16.5101 17.2317C16.7537 17.1308 16.9619 16.9599 17.1084 16.7406C17.255 16.5213 17.3332 16.2635 17.3332 15.9998C17.3332 15.6462 17.1927 15.3071 16.9426 15.057C16.6926 14.807 16.3534 14.6665 15.9998 14.6665ZM21.3332 14.6665C21.0694 14.6665 20.8117 14.7447 20.5924 14.8912C20.3731 15.0377 20.2022 15.246 20.1013 15.4896C20.0004 15.7332 19.974 16.0013 20.0254 16.26C20.0769 16.5186 20.2039 16.7562 20.3903 16.9426C20.5768 17.1291 20.8144 17.2561 21.073 17.3076C21.3317 17.359 21.5998 17.3326 21.8434 17.2317C22.087 17.1308 22.2953 16.9599 22.4418 16.7406C22.5883 16.5213 22.6665 16.2635 22.6665 15.9998C22.6665 15.6462 22.526 15.3071 22.276 15.057C22.0259 14.807 21.6868 14.6665 21.3332 14.6665ZM15.9998 2.6665C14.2489 2.6665 12.515 3.01138 10.8974 3.68144C9.2797 4.35151 7.80985 5.33363 6.57173 6.57175C4.07125 9.07223 2.66649 12.4636 2.66649 15.9998C2.65483 19.0787 3.72088 22.0646 5.67982 24.4398L3.01315 27.1065C2.82814 27.294 2.70282 27.5321 2.65298 27.7907C2.60315 28.0494 2.63105 28.317 2.73315 28.5598C2.8439 28.7997 3.02343 29.0013 3.24895 29.139C3.47447 29.2767 3.73582 29.3443 3.99982 29.3332H15.9998C19.536 29.3332 22.9274 27.9284 25.4279 25.4279C27.9284 22.9274 29.3332 19.5361 29.3332 15.9998C29.3332 12.4636 27.9284 9.07223 25.4279 6.57175C22.9274 4.07126 19.536 2.6665 15.9998 2.6665V2.6665ZM15.9998 26.6665H7.21315L8.45315 25.4265C8.57914 25.303 8.67937 25.1558 8.74803 24.9933C8.81669 24.8308 8.85242 24.6562 8.85315 24.4798C8.84814 24.1281 8.70437 23.7927 8.45315 23.5465C6.70727 21.8026 5.62005 19.5072 5.37674 17.0516C5.13343 14.5959 5.74908 12.1318 7.11879 10.0792C8.4885 8.02655 10.5275 6.51232 12.8885 5.79447C15.2495 5.07662 17.7863 5.19958 20.0668 6.14239C22.3473 7.0852 24.2303 8.78954 25.3951 10.965C26.5599 13.1405 26.9343 15.6526 26.4547 18.0732C25.975 20.4938 24.6709 22.6732 22.7645 24.2402C20.8582 25.8071 18.4675 26.6646 15.9998 26.6665V26.6665Z" fill="#904EE2"/>
</svg>
