<svg width="30" height="30" viewBox="0 0 30 30" fill="none" xmlns="http://www.w3.org/2000/svg">
<rect width="30" height="30" rx="6" fill="#001731" fill-opacity="0.3"/>
<path d="M6.8282 22.0798C6.2 21.719 5.87296 21.013 5.95642 20.2934C6.27316 17.5625 7.23562 10.6857 9.23766 6.91472C9.60246 6.2276 10.3944 5.93096 11.1572 6.08355L13.0299 6.45813C14.0781 6.6678 14.7092 7.74441 14.3801 8.76146L14.2438 9.18278C14.0864 9.66923 13.6334 9.99877 13.1221 9.99877C12.471 9.99877 11.9431 10.5266 11.9431 11.1777V16.6304C11.9431 16.9951 12.2388 17.2908 12.6035 17.2908C12.8268 17.2908 13.0332 17.1766 13.1642 16.9958C15.267 14.0933 19.2955 13.0602 21.7595 14.1642C25.1199 15.7224 24.8144 20.4174 21.7595 22.495C19.4469 24.0755 12.7212 25.4644 6.8282 22.0798Z" fill="white"/>
</svg>
